<?xml version="1.0" encoding="UTF-8"?>
<svg version="1.1" viewBox="0 0 64 64" xmlns="http://www.w3.org/2000/svg" xmlns:xlink="http://www.w3.org/1999/xlink">
    <defs>
        <linearGradient id="linearGradient44" x1="26.08" x2="41.782" y1="25.641" y2="52.837" gradientTransform="matrix(.7036 .7036 -.7036 .7036 37.678 -13.146)" gradientUnits="userSpaceOnUse">
            <stop stop-color="#804f3a" stop-opacity=".96863" offset=".18484"/>
            <stop stop-color="#d39076" stop-opacity=".98431" offset=".37192"/>
            <stop stop-color="#804f3a" stop-opacity=".96863" offset=".49095"/>
            <stop stop-color="#804f3a" stop-opacity=".96863" offset=".54683"/>
            <stop stop-color="#d39076" stop-opacity=".98431" offset=".64016"/>
            <stop stop-color="#804f3a" stop-opacity=".96863" offset=".7652"/>
        </linearGradient>
    </defs>
    <title>chocolate bar</title>
    <g stroke-width=".85773">
        <path d="m43.433 5.3138 4.852 4.852-4.852 4.852-4.852-4.852z" fill="#b37b47"/>
        <path d="m43.433 5.3138v-2.426l-7.2781 7.2781h2.426z" fill="#a16745"/>
        <path d="m43.433 15.018v2.426l7.2781-7.2781h-2.426z" fill="#633f2c"/>
        <path d="m48.285 10.166h2.426l-7.2781-7.2781v2.426z" fill="#8c5b3e"/>
        <path d="m43.433 15.018-4.852-4.852h-2.426l7.2781 7.2781z" fill="#523420"/>
        <path d="m50.711 12.592 4.852 4.852-4.852 4.852-4.852-4.852z" fill="#b37b47"/>
        <path d="m45.859 17.444 4.852-4.852v-2.426l-7.2781 7.2781z" fill="#a16745"/>
        <path d="m50.711 24.722 4.5488-4.5488c-.1213-1.3343.30325-2.7293.30325-2.7293l-4.852 4.852v2.426" fill="#633f2c"/>
        <path d="m55.563 17.444s.66715-.78846 1.395-1.0311l-6.247-6.247v2.426l4.852 4.852" fill="#8c5b3e"/>
        <path d="m50.711 22.296-4.852-4.852h-2.426l7.2781 7.2781z" fill="#523420"/>
        <path d="m55.987 21.871-2.8506 2.8506.74344.74344c.42455-2.0015 2.1071-3.594 2.1071-3.594z" fill="#b37b47"/>
        <path d="m55.987 21.871c-.2426-.4852-.66716-1.1524-.72781-1.6982l-4.5488 4.5488h2.426l2.8506-2.8506" fill="#a16745"/>
        <path d="m50.711 24.722 4.3668 4.3668s-1.258-1.9858-1.1974-3.6234l-.74344-.74344h-2.426" fill="#523420"/>
        <path d="m36.155 12.592 4.852 4.852-4.852 4.852-4.852-4.852z" fill="#b37b47"/>
        <path d="m36.155 12.592v-2.426l-7.2781 7.2781h2.426z" fill="#a16745"/>
        <path d="m41.007 17.444-4.852 4.852v2.426l7.2781-7.2781z" fill="#633f2c"/>
        <path d="m41.007 17.444h2.426l-7.2781-7.2781v2.426z" fill="#8c5b3e"/>
        <path d="m36.155 22.296-4.852-4.852h-2.426l7.2781 7.2781z" fill="#523420"/>
        <path d="m43.433 19.87 4.852 4.852-4.852 4.852-4.852-4.852z" fill="#b37b47"/>
        <path d="m43.433 19.87v-2.426l-7.2781 7.2781h2.426z" fill="#a16745"/>
        <path d="m48.285 24.722-4.852 4.852-1e-6 2.426 7.2781-7.2781z" fill="#633f2c"/>
        <path d="m48.285 24.722h2.426l-7.2781-7.2781v2.426z" fill="#8c5b3e"/>
        <path d="m38.581 24.722h-2.426l7.2781 7.2781 1e-6-2.426z" fill="#523420"/>
        <path d="m54.228 30.666-3.5177-3.5177-4.852 4.852 4.852 4.852 4.1849-4.1849c-.3639-.7278-.84911-1.213-.66716-2.0015" fill="#b37b47"/>
        <path d="m50.711 24.722-7.2781 7.2781h2.426l4.852-4.852z" fill="#a16745"/>
        <path d="m54.896 32.667-4.1849 4.1849v2.426l5.2766-5.2766c-.3639-.3639-.90976-.90976-1.0917-1.3343" fill="#633f2c"/>
        <path d="m50.711 27.148 3.5177 3.5177c.06065-.54585.42455-1.0311.84911-1.5769l-4.3668-4.3668v2.426" fill="#8c5b3e"/>
        <path d="m45.859 32h-2.426l7.2781 7.2781v-2.426z" fill="#523420"/>
        <path d="m28.877 19.87 4.852 4.852-4.852 4.852-4.852-4.852z" fill="#b37b47"/>
        <path d="m28.877 19.87v-2.426l-6.9142 6.9142 2.0621.3639z" fill="#a16745"/>
        <path d="m33.729 24.722-4.852 4.852 1.213 1.213 6.065-6.065z" fill="#633f2c"/>
    </g>
    <g transform="matrix(.6065 .6065 -.6065 .6065 36.761 -6.2098)" fill="#8c5b3e">
        <path d="m23 28 2-2h-12l2 2zm0 8h-8l-2 1.4z"/>
    </g>
    <g stroke-width=".85773">
        <path d="m36.155 27.148 4.852 4.852-4.852 4.852-4.852-4.852z" fill="#b37b47"/>
        <path d="m36.155 27.148v-2.426l-6.065 6.065 1.213 1.213z" fill="#a16745"/>
        <path d="m36.155 36.852 1.213 1.213 6.065-6.065h-2.426z" fill="#633f2c"/>
        <path d="m36.155 27.148 4.852 4.852h2.426l-7.2781-7.2781z" fill="#8c5b3e"/>
        <path d="m43.433 34.426 4.852 4.852-4.852 4.852-4.852-4.852z" fill="#b37b47"/>
        <path d="m38.581 39.278 4.852-4.852-1e-6-2.426-6.065 6.065z" fill="#a16745"/>
        <path d="m43.433 44.13 1.213 1.213 6.065-6.065-2.426-1e-6z" fill="#633f2c"/>
        <path d="m43.433 34.426 4.852 4.852 2.426 1e-6-7.2781-7.2781z" fill="#8c5b3e"/>
    </g>
    <path d="m31.983 14.337 21.834 21.834-23.728 23.728-21.834-21.834z" fill="#9e6eeb" stroke-width="1.1138"/>
    <path d="m27.891 41.821c4.1832 3.3884 10.372 3.1167 14.261-.77226 3.0405-3.0405 3.8562-7.4635 2.4466-11.246l-.23457.235c.92525 3.1537.1442 6.7014-2.3436 9.1892-2.8434 2.8434-8.5668 3.534-12.278.74283l2.6874-2.6874c.68677-.37864 1.613.51775 1.613.51775l.16666-.16666-3.7032-3.7032-.16665.16666s.8958.92563.51779 1.613c-.4425.4425-2.0272 2.0242-2.6889 2.6859-2.798-3.5843-2.6383-8.9453.71873-12.302 2.5054-2.5054 6.0535-3.2602 9.2184-2.3143l.2348-.2348c-3.7784-1.4009-8.2008-.57553-11.237 2.4604-4.1015 4.1015-4.1975 10.085-.7857 14.242l-2.3892 2.3893-3.2983 4.9525 4.8719-3.3789z" fill="url(#linearGradient44)" fill-opacity=".96863" stroke-width=".019213"/>
    <path d="m52.786 32.836-20.803-18.498c13.1 13.1 1.7597 17.163 11.524 26.928.78846-6.3683 9.2787-8.4296 9.2787-8.4296" fill-opacity=".39632" stroke-width=".85773"/>
    <path d="m56.486 33.503c-.90976-7.7026-24.503-19.166-24.503-19.166 16.254 13.95 3.9423 17.407 15.587 26.747 3.3964-8.4911 9.8254-.6065 8.9156-7.5813m-48.23 4.5621 21.834 21.834-1.213 1.213-21.834-21.834z" fill="#f8d317" stroke-width=".85773"/>
</svg>
